<?xml version="1.0" encoding="utf-8"?>
<!-- Generator: Adobe Illustrator 19.2.0, SVG Export Plug-In . SVG Version: 6.00 Build 0)  -->
<svg version="1.1" id="Layer_1" xmlns="http://www.w3.org/2000/svg" xmlns:xlink="http://www.w3.org/1999/xlink" x="0px" y="0px"
	 viewBox="0 0 500 500" style="enable-background:new 0 0 500 500;" xml:space="preserve">
<style type="text/css">
	.st0{fill:#ECF4F7;}
	.st1{fill:#1C1D21;}
	.st2{fill:#83E1E5;}
	.st3{fill:#AAB1BA;}
	.st4{fill:none;stroke:#1C1D21;stroke-width:10;stroke-linecap:round;stroke-linejoin:round;stroke-miterlimit:10;}
	.st5{fill:#FDDF7F;}
	.st6{fill:#FFFFFF;}
</style>
<g>
	<g>
		<g>
			<g>
				<path class="st1" d="M32.5,142.1c-0.8,0-1.6-0.2-2.3-0.6c-2.4-1.3-3.4-4.3-2.1-6.7c23.4-44.9,59.3-81.3,104-105.3
					c2.4-1.3,5.5-0.4,6.8,2c1.3,2.4,0.4,5.5-2,6.8C93.9,61.3,59.4,96.3,37,139.4C36.1,141.1,34.3,142.1,32.5,142.1z"/>
			</g>
		</g>
		<g>
			<g>
				<path class="st1" d="M250,500c-66.8,0-129.6-26-176.8-73.2C26,379.6,0,316.8,0,250c0-20.4,2.5-40.7,7.3-60.3
					c0.7-2.7,3.4-4.3,6.1-3.7c2.7,0.7,4.3,3.4,3.7,6.1c-4.7,18.8-7,38.3-7,57.9c0,132.3,107.7,240,240,240s240-107.7,240-240
					c0-126.3-98.6-231.5-224.5-239.5c-5.1-0.3-10.3-0.5-15.5-0.5c-2.8,0-5-2.2-5-5s2.2-5,5-5c5.4,0,10.8,0.2,16.1,0.5
					c63.3,4,122.3,31.8,165.9,78.1c43.8,46.5,68,107.4,68,171.4c0,66.8-26,129.6-73.2,176.8C379.6,474,316.8,500,250,500z"/>
			</g>
		</g>
		<g>
			<g>
				<path class="st1" d="M199.5,15.2c-2.3,0-4.4-1.6-4.9-4c-0.6-2.7,1.2-5.4,3.9-5.9c8.1-1.7,16.4-3,24.6-3.9
					c2.7-0.3,5.2,1.7,5.5,4.4c0.3,2.7-1.7,5.2-4.4,5.5c-7.9,0.8-15.9,2.1-23.7,3.7C200.1,15.2,199.8,15.2,199.5,15.2z"/>
			</g>
		</g>
	</g>
	<g>
		<g>
			<g>
				<path class="st2" d="M407.1,373.6C432,342,447.6,302.7,449.7,260h-88.7c-0.6,25.5-3.3,50.2-7.9,73.3
					C372.9,343.8,391.2,357.3,407.1,373.6z"/>
			</g>
		</g>
		<g>
			<g>
				<path class="st2" d="M338,429.6c1.1-0.6,2.3-1.1,3.4-1.7c1-0.5,2-1.1,3-1.6c0.3-0.2,0.7-0.4,1-0.5c18-9.8,34.4-22.4,48.5-37
					c-13.5-14-28.9-25.8-45.5-35.2c-4.7,17.9-10.7,34.5-17.9,49.3c-7.6,15.8-16.3,29.1-25.8,39.5c11.2-3.2,22-7.3,32.5-12.4
					C337.5,429.8,337.7,429.7,338,429.6z"/>
			</g>
		</g>
		<g>
			<g>
				<path class="st2" d="M260,448.7c29.9-7.5,55.9-48.3,70-104.4c-22-9.6-45.7-15.3-70-16.5V448.7z"/>
			</g>
		</g>
		<g>
			<g>
				<path class="st2" d="M260,51.3v120.9c24.3-1.2,48-6.9,70-16.5C315.9,99.5,289.9,58.8,260,51.3z"/>
			</g>
		</g>
		<g>
			<g>
				<path class="st2" d="M407.1,126.4c-15.9,16.3-34.2,29.8-54,40.3c4.7,23.1,7.4,47.8,7.9,73.3h88.7
					C447.6,197.3,432,158,407.1,126.4z"/>
			</g>
		</g>
		<g>
			<g>
				<path class="st2" d="M260,307.8c25.8,1.2,50.9,6.9,74.4,16.6c3.8-20.2,6.2-41.9,6.7-64.4H260V307.8z"/>
			</g>
		</g>
		<g>
			<g>
				<path class="st2" d="M348.4,146.5c16.6-9.4,32-21.2,45.5-35.2c-14.1-14.7-30.5-27.2-48.5-37c-0.3-0.2-0.7-0.4-1-0.5
					c-1-0.5-2-1.1-3-1.6c-1.1-0.6-2.3-1.2-3.5-1.7c-0.2-0.1-0.4-0.2-0.6-0.3c-10.4-5.1-21.3-9.2-32.5-12.4
					c9.5,10.4,18.1,23.7,25.8,39.5C337.7,112,343.7,128.6,348.4,146.5z"/>
			</g>
		</g>
		<g>
			<g>
				<path class="st2" d="M240,448.7V327.8c-24.3,1.2-48,6.9-70,16.5C184.1,400.5,210.1,441.2,240,448.7z"/>
			</g>
		</g>
		<g>
			<g>
				<path class="st2" d="M240,192.2c-25.8-1.2-50.9-6.9-74.4-16.6c-3.8,20.2-6.2,41.9-6.7,64.4H240V192.2z"/>
			</g>
		</g>
		<g>
			<g>
				<path class="st2" d="M260,192.2c25.8-1.2,50.9-6.9,74.4-16.6c3.8,20.2,6.2,41.9,6.7,64.4H260V192.2z"/>
			</g>
		</g>
		<g>
			<g>
				<path class="st2" d="M92.9,126.4C68,158,52.4,197.3,50.3,240h88.7c0.6-25.5,3.3-50.2,7.9-73.3
					C127.1,156.2,108.8,142.7,92.9,126.4z"/>
			</g>
		</g>
		<g>
			<g>
				<path class="st2" d="M240,51.3c-29.9,7.5-55.9,48.3-70,104.4c22,9.6,45.7,15.3,70,16.5V51.3z"/>
			</g>
		</g>
		<g>
			<g>
				<path class="st2" d="M240,260h-81.1c0.5,22.6,2.9,44.3,6.7,64.4c23.4-9.7,48.6-15.4,74.4-16.6V260z"/>
			</g>
		</g>
		<g>
			<g>
				<path class="st2" d="M154.6,425.7c0.3,0.2,0.7,0.4,1,0.5c1,0.5,2,1.1,3,1.6c1.1,0.6,2.3,1.2,3.5,1.7c0.2,0.1,0.4,0.2,0.6,0.3
					c10.4,5.1,21.3,9.2,32.5,12.4c-9.5-10.4-18.1-23.7-25.8-39.5c-7.2-14.9-13.1-31.5-17.9-49.3c-16.6,9.4-32,21.2-45.5,35.2
					C120.2,403.4,136.6,415.9,154.6,425.7z"/>
			</g>
		</g>
		<g>
			<g>
				<path class="st2" d="M169.4,97.2c7.6-15.8,16.3-29.1,25.8-39.5c-11.2,3.2-22,7.3-32.5,12.4c-0.2,0.1-0.5,0.2-0.7,0.3
					c-1.1,0.6-2.3,1.1-3.4,1.7c-1,0.5-2,1.1-3,1.6c-0.3,0.2-0.7,0.4-1,0.5c-18,9.8-34.4,22.4-48.5,37c13.5,14,28.9,25.8,45.5,35.2
					C156.3,128.6,162.3,112,169.4,97.2z"/>
			</g>
		</g>
		<g>
			<g>
				<path class="st2" d="M92.9,373.6c15.9-16.3,34.2-29.8,54-40.3c-4.7-23.1-7.4-47.8-7.9-73.3H50.3C52.4,302.7,68,342,92.9,373.6z"
					/>
			</g>
		</g>
	</g>
	<g>
		<g>
			<path class="st3" d="M398.7,412.6h-18.5c-7.7,0-14.7-4.8-17.1-12.1c-1.7-5.1-3.8-10.1-6.2-15c-3.4-6.9-1.9-15.2,3.6-20.7l13-13
				c7.1-7.1,7.1-18.6,0-25.7l-11-11c-7.1-7.1-18.6-7.1-25.7,0l-13,13c-5.4,5.4-13.8,7-20.7,3.6c-4.9-2.4-9.9-4.5-15-6.2
				c-7.3-2.5-12.1-9.4-12.1-17.1l0-18.5c0-10-8.1-18.2-18.2-18.2h-15.6c-10,0-18.2,8.1-18.2,18.2l0,18.5c0,7.7-4.8,14.7-12.1,17.1
				c-5.1,1.7-10.1,3.8-15,6.2c-6.9,3.4-15.2,1.9-20.7-3.6l-13-13c-7.1-7.1-18.6-7.1-25.7,0l-11,11c-7.1,7.1-7.1,18.6,0,25.7l13,13
				c5.4,5.4,7,13.8,3.6,20.7c-2.4,4.9-4.5,9.9-6.2,15c-2.5,7.3-9.4,12.1-17.1,12.1l-18.5,0c-9.6,0-17.5,7.4-18.1,16.9
				C126.9,470.1,185.6,495,250,495h0c64.4,0,123.1-24.9,166.8-65.6C416.1,420,408.3,412.6,398.7,412.6z"/>
		</g>
	</g>
	<g>
		<g>
			<path class="st1" d="M250,500c-63.4,0-123.8-23.8-170.2-66.9c-1.1-1-1.7-2.5-1.6-4c0.9-12.1,11-21.5,23.1-21.5l18.5,0
				c5.7,0,10.6-3.5,12.4-8.7c1.8-5.3,4-10.6,6.5-15.6c2.4-4.9,1.4-10.9-2.6-14.9l-13-13c-9-9-9-23.7,0-32.8l11-11
				c4.4-4.4,10.2-6.8,16.4-6.8c6.2,0,12,2.4,16.4,6.8l13,13c4,4,10,5.1,14.9,2.6c5-2.5,10.3-4.7,15.6-6.5c5.2-1.8,8.7-6.7,8.7-12.4
				v-18.5c0-12.8,10.4-23.2,23.2-23.2h15.6c12.8,0,23.2,10.4,23.2,23.2v18.5c0,5.7,3.5,10.6,8.7,12.4c5.3,1.8,10.6,4,15.6,6.5
				c4.9,2.4,10.9,1.4,14.9-2.6l13-13c4.4-4.4,10.2-6.8,16.4-6.8c6.2,0,12,2.4,16.4,6.8l11,11c4.4,4.4,6.8,10.2,6.8,16.4
				c0,6.2-2.4,12-6.8,16.4l-13,13c-4,4-5.1,10-2.6,14.9c2.5,5,4.7,10.3,6.5,15.6c1.8,5.2,6.7,8.7,12.4,8.7h18.5
				c12.1,0,22.3,9.4,23.1,21.5c0.1,1.5-0.5,3-1.6,4C373.8,476.2,313.4,500,250,500z M88.5,427.6C132.8,467.8,190,490,250,490
				c60,0,117.2-22.2,161.5-62.4c-1.4-5.7-6.7-10-12.8-10h-18.5c-10,0-18.8-6.2-21.9-15.5c-1.6-4.9-3.6-9.7-5.9-14.3
				c-4.3-8.8-2.5-19.4,4.5-26.4l13-13c2.5-2.5,3.9-5.8,3.9-9.3c0-3.5-1.4-6.8-3.9-9.3l-11-11c-2.5-2.5-5.8-3.9-9.3-3.9
				c-3.5,0-6.8,1.4-9.3,3.9l-13,13c-7,7-17.7,8.9-26.4,4.5c-4.6-2.3-9.4-4.3-14.3-5.9c-9.3-3.1-15.5-11.9-15.5-21.9v-18.5
				c0-7.3-5.9-13.2-13.2-13.2h-15.6c-7.3,0-13.2,5.9-13.2,13.2v18.5c0,10-6.2,18.8-15.5,21.9c-4.9,1.6-9.7,3.6-14.3,5.9
				c-8.8,4.3-19.4,2.5-26.4-4.5l-13-13c-2.5-2.5-5.8-3.9-9.3-3.9c-3.5,0-6.8,1.4-9.3,3.9l-11,11c-5.1,5.1-5.1,13.5,0,18.6l13,13
				c7,7,8.9,17.7,4.5,26.4c-2.3,4.6-4.3,9.4-5.9,14.3c-3.1,9.3-11.9,15.5-21.9,15.5l-18.5,0C95.2,417.6,90,421.8,88.5,427.6z"/>
		</g>
	</g>
	<g>
		<g>
			<path class="st5" d="M250,495c20,0,39.3-2.4,57.9-6.9c14.8-25.6,11.2-58.8-10.6-80.7c-26.1-26.1-68.4-26.1-94.6,0
				c-21.9,21.9-25.4,55.1-10.6,80.7C210.7,492.6,230,495,250,495L250,495z"/>
		</g>
	</g>
	<g>
		<g>
			<path class="st1" d="M250,500c-20,0-39.8-2.4-59.1-7c-1.3-0.3-2.5-1.2-3.2-2.4c-16.2-28.1-11.5-63.8,11.4-86.7
				c13.6-13.6,31.6-21,50.8-21c19.2,0,37.2,7.5,50.8,21c23,23,27.7,58.6,11.4,86.7c-0.7,1.2-1.8,2-3.2,2.4
				C289.8,497.6,270,500,250,500z M195.4,483.7c35.6,8.3,73.6,8.3,109.2,0c12.7-23.9,8.4-53.5-10.9-72.8
				c-11.7-11.7-27.2-18.1-43.7-18.1c-16.5,0-32.1,6.4-43.7,18.1C187,430.2,182.7,459.9,195.4,483.7z"/>
		</g>
	</g>
</g>
</svg>
